<?xml version="1.0" standalone="no"?>
<!DOCTYPE svg PUBLIC "-//W3C//DTD SVG 20010904//EN"
 "http://www.w3.org/TR/2001/REC-SVG-20010904/DTD/svg10.dtd">
<svg version="1.0" xmlns="http://www.w3.org/2000/svg"
 width="300.000000pt" height="300.000000pt" viewBox="0 0 300.000000 300.000000"
 preserveAspectRatio="xMidYMid meet">
<metadata>
Created by potrace 1.10, written by Peter Selinger 2001-2011
</metadata>
<g transform="translate(0.000000,300.000000) scale(0.100000,-0.100000)"
fill="#000000" stroke="none">
<path d="M1388 2797 c-198 -88 -388 -230 -496 -369 -95 -124 -192 -337 -298
-653 -115 -347 -124 -400 -76 -476 33 -50 111 -126 195 -187 31 -24 57 -49 57
-57 0 -18 -73 -66 -177 -119 l-73 -36 0 -274 c0 -170 4 -285 11 -303 15 -42
68 -92 109 -103 22 -6 350 -10 865 -10 784 0 832 1 870 19 48 22 69 44 90 94
12 30 15 86 15 304 l0 268 -132 65 c-75 36 -134 72 -135 80 -1 9 33 41 80 76
91 67 172 159 189 216 13 45 -10 154 -79 371 -108 339 -226 613 -311 720 -109
136 -272 266 -437 348 -134 67 -167 70 -267 26z m257 -68 c207 -101 404 -283
493 -456 85 -166 179 -416 263 -703 64 -219 56 -260 -72 -371 -130 -112 -159
-144 -152 -168 8 -30 54 -63 156 -111 48 -23 91 -49 97 -60 6 -11 10 -115 10
-255 0 -257 -5 -284 -55 -323 l-28 -22 -857 0 c-854 0 -857 0 -884 21 -53 42
-56 58 -56 323 0 134 3 252 6 261 4 9 30 28 58 42 88 44 156 92 167 117 20 44
3 72 -94 149 -50 41 -108 97 -127 123 -31 43 -35 56 -34 109 1 135 201 694
324 905 53 93 213 256 322 328 139 93 285 156 338 145 14 -2 70 -27 125 -54z"/>
<path d="M1364 2121 c-317 -168 -626 -456 -711 -661 -38 -92 -27 -146 46 -224
26 -28 172 -145 201 -161 22 -12 4 4 -70 62 -68 54 -146 131 -174 173 -25 39
-20 90 19 166 113 224 432 507 739 655 44 22 71 39 60 39 -10 0 -60 -22 -110
-49z"/>
<path d="M1580 2133 c161 -83 366 -231 503 -362 140 -135 224 -257 258 -375
10 -34 18 -54 18 -45 2 40 -42 150 -88 219 -93 142 -249 292 -452 432 -113 79
-246 155 -285 163 -16 4 5 -10 46 -32z"/>
<path d="M1413 2050 c-184 -100 -374 -242 -508 -381 -158 -163 -232 -274 -220
-329 8 -36 93 -124 200 -209 70 -55 73 -56 20 -10 -33 29 -93 85 -132 125 -82
81 -89 104 -53 173 47 93 202 263 347 382 146 120 385 269 430 269 43 0 252
-132 408 -257 221 -177 385 -378 385 -473 0 -26 -13 -44 -72 -104 -40 -40
-100 -96 -133 -125 l-60 -53 64 49 c94 70 207 184 215 216 8 33 -23 107 -75
184 -51 74 -203 227 -314 315 -147 118 -383 268 -420 268 -5 0 -42 -18 -82
-40z"/>
<path d="M1004 1672 c3 -5 30 -13 59 -17 116 -16 297 -83 297 -110 0 -16 -37
-49 -80 -71 -70 -35 -180 -10 -229 52 -12 15 -29 52 -39 83 -16 54 -17 55 -20
23 -5 -49 39 -133 87 -166 109 -76 302 -15 292 91 -2 21 -73 61 -154 87 -87
28 -224 46 -213 28z"/>
<path d="M1875 1673 c-111 -14 -265 -89 -265 -129 0 -46 98 -114 165 -114 111
0 216 96 214 197 0 37 -1 37 -24 -25 -38 -103 -90 -142 -188 -142 -45 0 -63 6
-103 33 -26 17 -49 37 -51 44 -10 29 144 93 271 113 111 18 95 38 -19 23z"/>
<path d="M966 1474 c-22 -21 -20 -47 10 -139 36 -110 83 -176 179 -252 89 -70
258 -159 321 -169 78 -12 267 85 393 203 83 77 133 156 167 265 16 53 16 58 0
82 -21 32 -32 32 -79 0 -67 -45 -140 -74 -188 -74 -25 0 -82 12 -125 26 -124
40 -182 41 -293 5 -52 -17 -104 -31 -116 -31 -34 0 -94 24 -159 64 -66 40 -87
44 -110 20z m181 -104 c72 -27 99 -25 210 10 117 38 149 37 269 -1 56 -18 118
-31 146 -31 59 1 155 43 211 92 20 17 37 27 37 21 0 -25 -62 -177 -90 -221
-56 -87 -175 -180 -318 -248 -99 -47 -135 -47 -234 0 -143 68 -277 173 -323
253 -21 36 -75 192 -75 215 0 5 25 -8 56 -30 31 -22 81 -49 111 -60z"/>
<path d="M2332 1296 c-18 -40 -72 -95 -161 -164 -98 -75 -114 -89 -86 -74 98
51 285 235 262 258 -2 2 -9 -7 -15 -20z"/>
<path d="M686 849 l-26 -20 0 -238 c0 -235 0 -238 23 -259 35 -33 99 -30 126
4 12 15 21 36 22 48 0 20 1 20 12 2 37 -59 59 -76 96 -76 43 0 62 12 89 58
l20 33 6 -26 c11 -43 41 -65 89 -65 44 0 78 23 89 60 3 10 10 6 21 -16 19 -36
34 -44 87 -44 57 0 80 34 80 116 0 35 3 64 8 64 4 0 29 -36 55 -80 26 -44 57
-85 68 -90 11 -6 43 -10 72 -8 76 4 87 30 87 213 0 85 4 134 9 125 5 -8 26
-78 46 -155 44 -168 56 -185 130 -185 61 0 80 15 100 84 24 79 31 86 44 40 6
-21 11 -44 11 -51 0 -6 12 -25 26 -42 23 -27 32 -31 78 -31 40 0 57 5 70 19
18 20 125 423 126 472 0 36 -38 69 -82 69 -52 0 -84 -30 -98 -92 -19 -82 -26
-89 -40 -38 -26 102 -49 130 -106 130 -48 0 -81 -33 -100 -98 -9 -31 -20 -61
-24 -66 -5 -4 -14 18 -21 50 -22 99 -87 140 -159 100 -21 -12 -29 -12 -52 0
-42 22 -76 17 -109 -15 -26 -27 -29 -36 -29 -96 0 -40 -4 -64 -10 -60 -5 3
-26 35 -45 70 -20 35 -50 76 -66 90 -41 34 -97 34 -136 1 l-28 -24 -5 -204 -6
-203 -2 202 -2 201 -31 26 c-35 30 -93 35 -139 11 -22 -11 -35 -33 -60 -97
-55 -148 -52 -141 -65 -126 -6 7 -28 57 -49 111 -30 78 -44 101 -67 112 -41
22 -101 19 -133 -6z m186 -174 c31 -82 59 -159 63 -170 6 -21 57 101 106 254
l23 71 63 0 63 0 0 -240 0 -240 -51 0 -50 0 6 163 6 162 -59 -160 -60 -160
-38 -3 -39 -3 -59 161 c-32 88 -60 160 -62 160 -2 0 -1 -72 3 -160 l6 -160
-49 0 -49 0 3 240 3 241 57 -3 56 -3 58 -150z m602 3 c47 -84 89 -160 94 -167
5 -9 7 56 4 152 l-5 167 52 0 51 0 0 -240 0 -240 -54 0 -54 0 -80 143 c-45 78
-84 150 -88 160 -15 41 -19 8 -16 -143 l4 -160 -49 0 -48 0 -4 240 -3 240 55
0 55 0 86 -152z m382 -3 c19 -82 34 -159 35 -170 1 -30 7 -9 48 163 l37 157
46 3 45 3 21 -88 c11 -48 28 -125 38 -170 9 -46 19 -82 20 -80 2 2 17 68 34
147 16 80 32 155 35 168 5 19 12 22 55 22 28 0 50 -2 50 -4 0 -2 -25 -104 -55
-225 -30 -122 -55 -228 -55 -236 0 -12 -13 -15 -55 -15 -48 0 -55 3 -60 23 -3
12 -20 85 -38 161 l-33 139 -39 -162 -39 -161 -51 0 -52 0 -58 228 c-32 125
-60 233 -63 240 -3 10 8 12 48 10 l53 -3 33 -150z"/>
</g>
</svg>
